<svg xmlns="http://www.w3.org/2000/svg" width="46.238" height="37.831" viewBox="0 0 46.238 37.831"><defs><style>.a{fill:#fff;}</style></defs><path class="a" d="M7.805,4.5H41.433a6.312,6.312,0,0,1,6.305,6.305V36.026a6.312,6.312,0,0,1-6.305,6.305H7.805A6.312,6.312,0,0,1,1.5,36.026V10.805A6.312,6.312,0,0,1,7.805,4.5ZM41.433,38.127a2.1,2.1,0,0,0,2.1-2.1V10.805a2.1,2.1,0,0,0-2.1-2.1H7.805a2.1,2.1,0,0,0-2.1,2.1V36.026a2.1,2.1,0,0,0,2.1,2.1Z" transform="translate(-1.5 -4.5)"/><path class="a" d="M24.619,31.456a1.812,1.812,0,0,1-1.205-.481L2.4,12.342A3.136,3.136,0,0,1,1.88,8.635a1.84,1.84,0,0,1,2.927-.654L24.619,25.545,44.431,7.981a1.84,1.84,0,0,1,2.927.654,3.136,3.136,0,0,1-.517,3.707L25.824,30.975A1.812,1.812,0,0,1,24.619,31.456Z" transform="translate(-1.5 -2.177)"/></svg>