<svg xmlns="http://www.w3.org/2000/svg" width="49.304" height="49.393" viewBox="0 0 49.304 49.393"><defs><style>.a{fill:#fff;}</style></defs><g transform="translate(0 0)"><path class="a" d="M44.213,50.893c-.2,0-.407-.009-.608-.027l-.041,0A47.06,47.06,0,0,1,23.151,43.6,46.478,46.478,0,0,1,8.958,29.409,47.052,47.052,0,0,1,1.7,8.9q0-.018,0-.035A6.757,6.757,0,0,1,8.419,1.5h6.8a6.757,6.757,0,0,1,6.69,5.812l0,.021a26.709,26.709,0,0,0,1.454,5.836,6.775,6.775,0,0,1-1.522,7.124l-.009.009-1.615,1.615A33.812,33.812,0,0,0,30.553,32.246l1.615-1.615.009-.009a6.757,6.757,0,0,1,7.129-1.52,26.7,26.7,0,0,0,5.831,1.452l.02,0a6.757,6.757,0,0,1,5.812,6.828v6.727a6.757,6.757,0,0,1-6.757,6.781Zm-.186-4.513c.062.005.124.008.186.008a2.252,2.252,0,0,0,2.252-2.262s0-.006,0-.009V37.359q0-.028,0-.056a2.252,2.252,0,0,0-1.929-2.285,31.219,31.219,0,0,1-6.81-1.7,2.252,2.252,0,0,0-2.377.5l-2.856,2.856a2.252,2.252,0,0,1-2.706.365,38.31,38.31,0,0,1-14.36-14.359,2.252,2.252,0,0,1,.365-2.706l2.855-2.855a2.259,2.259,0,0,0,.5-2.373,31.233,31.233,0,0,1-1.7-6.814A2.263,2.263,0,0,0,15.223,6h-6.8a2.252,2.252,0,0,0-2.24,2.44,42.527,42.527,0,0,0,6.563,18.522l.011.017A41.943,41.943,0,0,0,25.576,39.806l.018.011A42.533,42.533,0,0,0,44.027,46.38Z" transform="translate(-1.668 -1.5)"/></g></svg>