<svg xmlns="http://www.w3.org/2000/svg" width="22.858" height="34.274" viewBox="0 0 22.858 34.274"><defs><style>.a{fill:#fff;}</style></defs><path class="a" d="M21.857,22.421a1.556,1.556,0,0,1-.012-2.19l7.238-7.25H1.536a1.548,1.548,0,0,1,0-3.1H29.072l-7.238-7.25a1.567,1.567,0,0,1,.012-2.19,1.541,1.541,0,0,1,2.179.012l9.81,9.881h0a1.738,1.738,0,0,1,.321.488,1.477,1.477,0,0,1,.119.6,1.552,1.552,0,0,1-.44,1.083l-9.81,9.881A1.517,1.517,0,0,1,21.857,22.421Z" transform="translate(0 34.274) rotate(-90)"/></svg>