<svg xmlns="http://www.w3.org/2000/svg" width="706.457" height="53.285" viewBox="0 0 706.457 53.285"><defs><style>.a{fill:#fff;}</style></defs><g transform="translate(15821 2590.057)"><path class="a" d="M55.913,25.955s.9,4.425,1.106,5.352H53.047c.392-1.059,1.9-5.174,1.9-5.174-.024.036.393-1.082.63-1.772l.333,1.594Zm12.6-18V49.826A5.711,5.711,0,0,1,62.8,55.535H5.709A5.711,5.711,0,0,1,0,49.826V7.959A5.711,5.711,0,0,1,5.709,2.25H62.8A5.711,5.711,0,0,1,68.509,7.959ZM18.138,37.837l7.517-18.459H20.6L15.926,31.985l-.511-2.557-1.665-8.492a1.989,1.989,0,0,0-2.165-1.558h-7.7l-.083.369A18.874,18.874,0,0,1,8.825,21.78l4.258,16.057Zm11.228.024,3-18.483H27.582L24.6,37.86h4.769Zm16.64-6.042c.024-2.105-1.261-3.711-4.008-5.031-1.677-.844-2.7-1.415-2.7-2.284.024-.785.868-1.594,2.747-1.594a8.2,8.2,0,0,1,3.556.7l.428.2.654-4a11.878,11.878,0,0,0-4.282-.785c-4.722,0-8.04,2.522-8.064,6.113-.036,2.652,2.379,4.127,4.187,5.019,1.844.9,2.474,1.5,2.474,2.3-.024,1.237-1.5,1.808-2.866,1.808a9.528,9.528,0,0,1-4.484-.987l-.63-.3-.666,4.151a14.594,14.594,0,0,0,5.328.987C42.7,38.134,45.97,35.648,46.006,31.818ZM62.8,37.86,58.946,19.377h-3.7a2.352,2.352,0,0,0-2.5,1.534l-7.1,16.949h5.019s.821-2.284,1-2.771H57.8c.143.654.571,2.771.571,2.771Z" transform="translate(-15502.233 -2592.307)"/><path class="a" d="M57.436,47.2A1.333,1.333,0,1,1,56.1,45.8,1.329,1.329,0,0,1,57.436,47.2ZM20.469,45.8a1.4,1.4,0,1,0,1.3,1.392A1.315,1.315,0,0,0,20.469,45.8Zm13.975-.036a1.1,1.1,0,0,0-1.13,1.035h2.272A1.093,1.093,0,0,0,34.445,45.769Zm12.822.036A1.393,1.393,0,1,0,48.6,47.2,1.315,1.315,0,0,0,47.266,45.8Zm12.6,3.1c0,.036.036.059.036.131,0,.036-.036.059-.036.131a.417.417,0,0,0-.059.1.153.153,0,0,1-.131.059c-.036.036-.059.036-.131.036a.236.236,0,0,1-.131-.036c-.036,0-.059-.036-.1-.059s-.059-.059-.059-.1a.216.216,0,0,1-.036-.131c0-.059,0-.1.036-.131a.224.224,0,0,1,.059-.131.417.417,0,0,1,.1-.059.216.216,0,0,1,.131-.036c.059,0,.1,0,.131.036.059.036.1.036.131.059S59.826,48.849,59.862,48.909Zm-.262.167c.059,0,.059-.036.1-.036a.145.145,0,0,0,0-.19c-.036,0-.059-.036-.131-.036h-.19v.416h.1v-.167h.036l.131.167h.1l-.131-.155ZM68.509,8.029V49.9A5.711,5.711,0,0,1,62.8,55.6H5.709A5.711,5.711,0,0,1,0,49.9V8.029A5.711,5.711,0,0,1,5.709,2.32H62.8A5.711,5.711,0,0,1,68.509,8.029Zm-60.9,16.6A16.465,16.465,0,0,0,33.184,38.359a17.737,17.737,0,0,1,0-27.415A16.465,16.465,0,0,0,7.612,24.633ZM34.255,37.574a16.468,16.468,0,0,0,0-25.869A16.468,16.468,0,0,0,34.255,37.574ZM17.329,46.649A1.667,1.667,0,0,0,15.581,44.9a1.7,1.7,0,0,0-1.522.773,1.577,1.577,0,0,0-1.451-.773,1.51,1.51,0,0,0-1.261.642v-.523h-.975v4.365h.975c0-2.248-.3-3.592,1.07-3.592,1.213,0,.975,1.213.975,3.592h.94c0-2.177-.3-3.592,1.07-3.592,1.213,0,.975,1.189.975,3.592h.975V46.649Zm5.34-1.629h-.94v.523a1.714,1.714,0,0,0-1.392-.642,2.3,2.3,0,0,0,0,4.591,1.649,1.649,0,0,0,1.392-.642V49.4h.94Zm4.817,3.045c0-1.784-2.724-.975-2.724-1.808,0-.678,1.415-.571,2.2-.131l.392-.773c-1.118-.726-3.592-.714-3.592.975s2.724.987,2.724,1.784c0,.749-1.606.69-2.462.1l-.416.749C24.942,49.86,27.487,49.67,27.487,48.064ZM31.7,49.17l-.262-.809c-.452.25-1.451.523-1.451-.488V45.9h1.558v-.88H29.985V43.687h-.975v1.332h-.9v.868h.9v1.986c0,2.093,2.058,1.713,2.688,1.3Zm1.582-1.594H36.55c0-1.927-.88-2.688-2.07-2.688a2.142,2.142,0,0,0-2.165,2.3c0,2.438,2.688,2.843,4.02,1.689l-.452-.714c-.928.761-2.331.69-2.6-.583Zm7.029-2.557a1.4,1.4,0,0,0-1.808.523v-.523h-.975v4.365H38.5V46.922a.992.992,0,0,1,1.522-1l.285-.9ZM41.569,47.2c0-1.356,1.38-1.8,2.462-1l.452-.773a2.354,2.354,0,1,0,0,3.568l-.452-.773C42.937,48.992,41.569,48.528,41.569,47.2ZM49.5,45.019h-.975v.523c-.987-1.308-3.556-.571-3.556,1.653,0,2.284,2.664,2.938,3.556,1.653V49.4H49.5V45.019Zm4.008,0a1.429,1.429,0,0,0-1.808.523v-.523h-.94v4.365h.94V46.922a1,1,0,0,1,1.522-1l.285-.9ZM58.3,43.247h-.94v2.3c-.975-1.3-3.556-.607-3.556,1.653,0,2.307,2.676,2.926,3.556,1.653V49.4h.94Zm.9-8.932v.547h.1v-.547h.226v-.1h-.547v.1h.226Zm.785,14.725a.363.363,0,0,0-.036-.19c-.036-.036-.059-.1-.1-.131s-.1-.059-.131-.1c-.059,0-.131-.036-.19-.036a1.264,1.264,0,0,1-.167.036.621.621,0,0,0-.131.1.186.186,0,0,0-.1.131.363.363,0,0,0-.036.19.346.346,0,0,0,.036.167.186.186,0,0,0,.1.131.412.412,0,0,0,.131.1.323.323,0,0,0,.167.036.363.363,0,0,0,.19-.036c.036-.036.1-.059.131-.1s.059-.1.1-.131A.346.346,0,0,0,59.993,49.04Zm.381-14.832h-.167l-.19.416-.19-.416H59.66v.642h.1v-.488l.19.416h.131l.167-.416v.488h.131Zm.523-9.575a16.465,16.465,0,0,0-25.572-13.7,17.737,17.737,0,0,1,0,27.415A16.465,16.465,0,0,0,60.9,24.633Z" transform="translate(-15607.118 -2592.377)"/><path class="a" d="M22.158,29.154a2.552,2.552,0,0,1-2.617,2.557,1.718,1.718,0,0,1-1.9-1.784A2.579,2.579,0,0,1,20.22,27.31,1.786,1.786,0,0,1,22.158,29.154ZM9.575,23.385H9.016a.373.373,0,0,0-.381.321l-.511,3.176.975-.036c1.308,0,2.319-.178,2.557-1.689C11.93,23.564,10.919,23.385,9.575,23.385Zm33.779,0h-.535a.35.35,0,0,0-.381.321l-.5,3.176.952-.036c1.546,0,2.617-.357,2.617-2.141C45.494,23.445,44.364,23.385,43.353,23.385ZM68.509,7.959V49.826A5.711,5.711,0,0,1,62.8,55.535H5.709A5.711,5.711,0,0,1,0,49.826V7.959A5.711,5.711,0,0,1,5.709,2.25H62.8A5.711,5.711,0,0,1,68.509,7.959ZM15.26,24.063c0-2.5-1.927-3.33-4.127-3.33H6.375a.628.628,0,0,0-.618.559L3.806,33.436a.409.409,0,0,0,.381.476h2.26a.759.759,0,0,0,.654-.678l.535-3.164c.119-.856,1.57-.559,2.141-.559C13.178,29.511,15.26,27.489,15.26,24.063ZM25.275,25.11h-2.26c-.452,0-.476.654-.5.975A3.037,3.037,0,0,0,19.7,24.9a5.307,5.307,0,0,0-5.138,5.376,3.55,3.55,0,0,0,3.77,3.83,4.632,4.632,0,0,0,3.152-1.415,3.178,3.178,0,0,0-.119.737c0,.274.119.476.381.476h2.046c.321,0,.595-.345.654-.678l1.213-7.648A.4.4,0,0,0,25.275,25.11Zm4.817,11.644L37.668,25.74a.244.244,0,0,0,.059-.2.425.425,0,0,0-.381-.416H35.063a.673.673,0,0,0-.535.3l-3.152,4.639L30.068,25.6a.722.722,0,0,0-.654-.476H27.19a.425.425,0,0,0-.381.416c0,.143,2.319,6.756,2.522,7.386a30.728,30.728,0,0,0-2.438,3.758.383.383,0,0,0,.381.381h2.284a.7.7,0,0,0,.535-.309ZM49.039,24.063c0-2.5-1.927-3.33-4.127-3.33H40.19a.655.655,0,0,0-.654.559L37.609,33.424a.424.424,0,0,0,.381.476h2.438a.51.51,0,0,0,.476-.381l.535-3.449c.119-.856,1.57-.559,2.141-.559C46.957,29.511,49.039,27.489,49.039,24.063ZM59.053,25.11h-2.26c-.452,0-.476.654-.511.975A2.982,2.982,0,0,0,53.463,24.9a5.307,5.307,0,0,0-5.138,5.376A3.55,3.55,0,0,0,52.1,34.1a4.5,4.5,0,0,0,3.152-1.415,5.285,5.285,0,0,0-.119.737c0,.274.119.476.381.476h2.058c.321,0,.595-.345.654-.678l1.213-7.648A.4.4,0,0,0,59.053,25.11Zm5.65-3.961a.4.4,0,0,0-.381-.416h-2.2a.394.394,0,0,0-.381.321l-1.927,12.37-.036.059a.421.421,0,0,0,.416.416h1.962a.737.737,0,0,0,.618-.678L64.7,21.185v-.036ZM54,27.31a2.572,2.572,0,0,0-2.581,2.617,1.744,1.744,0,0,0,1.927,1.784,2.536,2.536,0,0,0,2.581-2.557A1.77,1.77,0,0,0,54,27.31Z" transform="translate(-15714.059 -2592.307)"/><path class="a" d="M14.832,22.446c.012-1.4,0-2.8,0-4.2v-4.2A.341.341,0,0,1,15,13.728a6.906,6.906,0,0,1,4.543-1.32,3.605,3.605,0,0,1,3.342,2.581,9.348,9.348,0,0,1,.488,3.295,9.749,9.749,0,0,1-.4,3.045,3.85,3.85,0,0,1-4.246,2.843,6.914,6.914,0,0,1-3.735-1.392.375.375,0,0,1-.155-.333Zm18.424,1.737a3.5,3.5,0,0,0,1.677.178,7.62,7.62,0,0,0,3.723-1.487.316.316,0,0,0,.155-.3c-.012-.464,0-.94,0-1.4s-.012-.952,0-1.427c0-.167-.048-.238-.214-.262-.833-.107-1.653-.262-2.486-.345a6.225,6.225,0,0,0-2.474.226,2.292,2.292,0,0,0-1.629,1.558,3.227,3.227,0,0,0,.012,1.927,1.957,1.957,0,0,0,1.237,1.332ZM68.509,7.959V49.826A5.711,5.711,0,0,1,62.8,55.535H5.709A5.711,5.711,0,0,1,0,49.826V7.959A5.711,5.711,0,0,1,5.709,2.25H62.8A5.711,5.711,0,0,1,68.509,7.959ZM43.829,10.8a3.964,3.964,0,0,0,.19.607c1.962,4.829,3.913,9.67,5.887,14.5a1.405,1.405,0,0,1,.024,1.177c-.333.737-.583,1.5-.928,2.224a2.343,2.343,0,0,1-1.511,1.332,4.423,4.423,0,0,1-1.534.107c-.25-.024-.5-.083-.749-.1-.333-.024-.5.131-.511.476s-.012.666,0,.987c.012.547.19.8.737.892a11.487,11.487,0,0,0,1.689.2,4.185,4.185,0,0,0,3.937-2.129,13.161,13.161,0,0,0,.916-1.832q3.532-8.938,7.041-17.9a2.208,2.208,0,0,0,.155-.547c.048-.285-.083-.428-.369-.44-.666-.012-1.32,0-1.986,0a.748.748,0,0,0-.761.511c-.048.131-.107.274-.155.4L52.44,21.233c-.25.726-.5,1.439-.773,2.212-.048-.107-.071-.167-.1-.226q-1.927-5.334-3.854-10.681c-.2-.559-.416-1.13-.63-1.689a.65.65,0,0,0-.642-.476c-.761-.012-1.522-.024-2.284-.012a.326.326,0,0,0-.333.44Zm-15,12.144a4.125,4.125,0,0,0,2.141,3.164,5.822,5.822,0,0,0,3.77.547,8.106,8.106,0,0,0,4.02-1.844c.048-.036.1-.071.167-.119.059.381.107.737.178,1.094a.573.573,0,0,0,.535.523c.547.012,1.082.012,1.629,0a.475.475,0,0,0,.476-.464,2.2,2.2,0,0,0,.012-.274V15.012a9.318,9.318,0,0,0-.083-1.285,3.933,3.933,0,0,0-1.891-3.021A5.793,5.793,0,0,0,37.62,10c-.357-.048-.714-.083-1.082-.131H35.349a2.261,2.261,0,0,1-.3.036,13.777,13.777,0,0,0-2.878.416c-.607.155-1.189.381-1.784.583a.719.719,0,0,0-.523.773c.012.333-.012.666,0,.987.012.488.214.618.678.488.773-.2,1.558-.416,2.343-.571a11.367,11.367,0,0,1,3.7-.143,2.431,2.431,0,0,1,1.677.833,2.771,2.771,0,0,1,.523,1.629c.036.821.024,1.653.036,2.474a.712.712,0,0,1-.024.143.446.446,0,0,1-.131-.012,17.948,17.948,0,0,0-3.188-.488,8.686,8.686,0,0,0-3.318.381,4.874,4.874,0,0,0-2.926,2.474,5.165,5.165,0,0,0-.4,3.069ZM11.739,11.159v20.85a2.486,2.486,0,0,0,.012.3.492.492,0,0,0,.488.5q1.053.018,2.105,0a.468.468,0,0,0,.488-.488,2.486,2.486,0,0,0,.012-.3V24.8c.107.083.167.143.226.19a6.981,6.981,0,0,0,6.078,1.534,6.111,6.111,0,0,0,4.365-3.473,10.436,10.436,0,0,0,1.035-4.4,11.237,11.237,0,0,0-.809-4.96,5.842,5.842,0,0,0-4.365-3.675c-.321-.071-.654-.1-.975-.143h-.833c-.143.024-.285.036-.428.059a7.98,7.98,0,0,0-3.782,1.511c-.238.167-.464.357-.7.535-.012-.059-.036-.1-.048-.143-.048-.274-.083-.547-.131-.821a.682.682,0,0,0-.761-.666H12.56c-.7-.012-.821.119-.821.809ZM58.708,38.764a1.4,1.4,0,0,0-.9.119,60.155,60.155,0,0,1-16.271,4.258c-1.725.2-3.461.333-5.2.381a60.013,60.013,0,0,1-9.468-.511,63.21,63.21,0,0,1-6.3-1.177A58.725,58.725,0,0,1,7.874,37.218c-1.047-.523-2.07-1.106-3.1-1.665-.452-.25-.737-.178-.975.25V36a4.056,4.056,0,0,0,.44.571,43.968,43.968,0,0,0,14.511,8.671,45.527,45.527,0,0,0,8,2.081,44.328,44.328,0,0,0,5.019.535c.357.012.714.024,1.07.048a1.8,1.8,0,0,1,.25.036h2.105a1.8,1.8,0,0,1,.25-.036,44.163,44.163,0,0,0,5.3-.476,47.132,47.132,0,0,0,7.481-1.748,37.966,37.966,0,0,0,9.92-4.769,5.805,5.805,0,0,0,.952-.737.816.816,0,0,0-.392-1.415ZM64.7,35.47c-.1-.5-.476-.69-.9-.833a8.914,8.914,0,0,0-2.093-.392,14.776,14.776,0,0,0-3.9.19,10.052,10.052,0,0,0-3.984,1.558,1.175,1.175,0,0,0-.369.357.589.589,0,0,0-.059.4c.036.155.2.19.357.178a1.294,1.294,0,0,0,.214-.012l2.319-.25a20.612,20.612,0,0,1,3.425-.1,8.16,8.16,0,0,1,1.427.262,1,1,0,0,1,.761,1.035,7.664,7.664,0,0,1-.345,2.319,40.3,40.3,0,0,1-1.582,4.5,1.438,1.438,0,0,0-.1.3c-.048.3.119.476.4.416a1.022,1.022,0,0,0,.476-.25,13.281,13.281,0,0,0,1.261-1.332,13.565,13.565,0,0,0,2.462-5.543c.083-.357.143-.726.2-1.082.024-.559.024-1.142.024-1.725Z" transform="translate(-15821 -2592.307)"/><path class="a" d="M104.4,54.514h25.75l9.782-13.248h-25.75ZM0,46.487v2.807H35.883l2.062-2.807Zm75.846-5.22c-3.816,0-2.632-1.579-2.018-2.413,1.228-1.667,3.334-4.562,4.562-6.185s1.228-2.588-1.228-2.588H54.79L36.761,54.558H80.672c14.52,0,22.592-9.87,25.092-13.292H75.846ZM215.124,38.24l17.24-23.425H205.079L187.839,38.24h27.285ZM41.805,41.267H0v2.807H39.744ZM90.5,29.6c-1.228,1.667-3.29,4.562-4.518,6.229-.614.877-1.8,2.413,2.018,2.413h20s3.2-4.387,5.922-8.072c3.685-5,.307-15.353-12.809-15.353H49.394l-8.949,12.2H89.313c2.457,0,2.413.965,1.184,2.588ZM0,54.514H32.067l2.062-2.807H0Zm141.691,0h25.75l9.782-13.248h-25.75C151.429,41.267,141.691,54.514,141.691,54.514Zm97.385.044h41.674V51.751H241.137Zm9.782-13.292L246.8,44.074h33.953V41.267Zm-5.922,8.028h37.813V46.487H245Zm-72.03-34.479-9.87,13.423H149.543l9.87-13.423h-25.75L116.423,38.24h62.993l17.24-23.425h-25.75Zm14.7,26.452s-1.886,2.588-2.807,3.816c-3.246,4.387-.395,9.475,10.177,9.475h41.367l9.782-13.292H185.6Z" transform="translate(-15395.292 -2598.101)"/></g></svg>